<?xml version="1.0" encoding="utf-8"?>
<!DOCTYPE svg PUBLIC "-//W3C//DTD SVG 1.1//EN" "http://www.w3.org/Graphics/SVG/1.1/DTD/svg11.dtd">
<svg version="1.1" id="Ellipse_1_1_" xmlns="http://www.w3.org/2000/svg" xmlns:xlink="http://www.w3.org/1999/xlink" x="0px"
     y="0px" width="250px" height="250px" viewBox="0 0 250 250" enable-background="new 0 0 250 250" xml:space="preserve"
     class="logo">
      <g id="Ellipse_1">
            <g>
              <path fill-rule="evenodd" clip-rule="evenodd" ng-style="{'fill': selectedColor}" d="M141.061,162.242c1.966-2.732,3.434-5.082,4.4-7.05
                  c0.966-1.966,1.15-3.115,0.55-3.45c-0.467-0.266-1.284-0.05-2.45,0.65c-1.167,0.7-2.534,1.935-4.1,3.7
                  c-1.567,1.767-3.25,4.067-5.05,6.899c-1.8,2.835-3.601,6.285-5.4,10.351c-0.935,2.067-1.667,4-2.2,5.8
                  c2.466-2.466,4.966-5.216,7.5-8.25C136.844,167.859,139.094,164.977,141.061,162.242z M125,0C55.964,0,0,55.964,0,125
                  c0,69.035,55.964,125,125,125c69.035,0,125-55.965,125-125C250,55.964,194.035,0,125,0z M178.412,35.392
                  c2.101,4.35,1.95,11.55-4.5,22.95c-9.3,16.35-25.8,45.3-36.75,69.9c-0.6,1.5-1.2,1.65-2.4,0.301c-2.1-2.25-3.899-7.5-0.6-16.65
                  c7.35-20.4,28.5-59.101,40.65-76.651C176.162,33.292,177.513,33.592,178.412,35.392z M70.861,102.442
                  c4.2-16.95,21.15-45.15,34.8-65.851c1.2-1.8,2.55-1.5,3.601,0.15c2.399,3.75,3,9.6-2.851,20.85
                  c-7.35,14.25-22.5,36.601-26.25,52.5c-1.8,7.65-1.35,13.35,3,15c9.15,3.6,21.15-9.6,31.65-29.851
                  c8.25-16.05,24.601-45.75,32.851-58.8c1.199-1.95,2.55-1.5,3.6,0.15c1.801,3.15,1.95,9.9-1.95,18.6
                  c-5.25,11.55-23.85,46.05-33.9,60c-10.65,14.7-24,18.45-34.35,14.25C73.711,126.442,66.811,118.942,70.861,102.442z
                   M200.109,167.692c-0.066,0.835-0.467,1.817-1.199,2.95c-1.4,2.268-2.785,4.734-4.15,7.4c-1.367,2.667-2.418,4.934-3.15,6.8
                  c-1,2.8-0.885,4.649,0.35,5.55c1.233,0.9,3.351,0.45,6.351-1.35c0.866-0.533,1.399-0.666,1.601-0.4
                  c0.199,0.268,0.1,0.75-0.301,1.45s-1.034,1.534-1.9,2.5c-0.867,0.967-1.916,1.884-3.149,2.75c-1.234,0.867-2.601,1.617-4.101,2.25
                  c-1.5,0.634-3.049,0.95-4.649,0.95c-1.935,0-3.3-0.45-4.101-1.351c-0.799-0.899-1.234-2.065-1.299-3.5
                  c-0.068-1.433,0.133-3.016,0.6-4.75c0.465-1.732,1.065-3.466,1.8-5.2c0.333-0.8,0.733-1.699,1.2-2.699
                  c0.465-1,0.982-2.051,1.55-3.15c0.565-1.1,1.149-2.2,1.75-3.3c0.601-1.101,1.165-2.116,1.7-3.05c-1.4-0.066-2.7-0.333-3.9-0.801
                  c-1.135,2.135-2.8,3.935-5,5.4c-2.199,1.467-4.9,2.135-8.1,2c-0.135,2.067-0.7,4.334-1.7,6.8c-1,2.468-2.367,4.768-4.101,6.9
                  c-1.734,2.134-3.799,3.917-6.199,5.35c-2.4,1.435-5.067,2.15-8,2.15c-3,0-5.317-0.565-6.95-1.7c-1.634-1.133-2.784-2.55-3.45-4.25
                  c-0.303-0.771-0.515-1.572-0.659-2.398c-0.398,0.691-0.951,1.453-1.689,2.299c-1.367,1.566-3.2,3.066-5.5,4.5
                  s-4.817,2.149-7.55,2.149c-2.268,0-4.334-0.665-6.2-2c-1.867-1.333-3.167-3.165-3.9-5.5c-0.8-2.333-0.866-5.2-0.2-8.6
                  c0.495-2.531,1.252-5.155,2.266-7.871c-1.772,0.427-3.784,0.497-6.065,0.171c-0.134,2.4-0.717,4.967-1.75,7.7
                  c-1.035,2.734-2.434,5.25-4.2,7.55c-1.768,2.3-3.867,4.2-6.3,5.7c-2.434,1.5-5.15,2.25-8.15,2.25s-5.3-0.565-6.9-1.7
                  c-1.6-1.133-2.734-2.55-3.399-4.25c-0.25-0.637-0.431-1.299-0.578-1.974c-0.532,0.649-1.179,1.353-1.972,2.124
                  c-1.3,1.267-2.85,2.434-4.65,3.5c-1.8,1.066-3.834,1.917-6.1,2.55c-2.268,0.633-4.635,0.782-7.1,0.45
                  c-2.667-0.333-4.9-1.101-6.7-2.301c-1.8-1.199-3.135-2.715-4-4.55c-0.867-1.833-1.25-3.915-1.15-6.25
                  c0.1-2.333,0.75-4.865,1.95-7.6c1.732-3.8,4.016-6.815,6.85-9.05c2.833-2.233,5.733-3.716,8.7-4.45
                  c2.966-0.733,5.716-0.783,8.25-0.15c2.533,0.635,4.366,1.917,5.5,3.851c0.666,1.134,1.065,2.35,1.2,3.649
                  c0.133,1.3,0.016,2.601-0.35,3.9c-0.367,1.3-0.934,2.517-1.7,3.649c-0.768,1.135-1.718,2.101-2.851,2.9
                  c-1.2,0.8-2.417,1.25-3.649,1.35c-1.234,0.101-2.3-0.032-3.2-0.399c-0.9-0.366-1.518-0.866-1.85-1.5
                  c-0.334-0.633-0.2-1.283,0.4-1.95c0.466-0.533,1-1.133,1.6-1.8c0.6-0.666,1.15-1.333,1.65-2c0.5-0.666,0.85-1.283,1.05-1.851
                  c0.2-0.565,0.133-1.05-0.2-1.449c-0.6-0.601-1.517-0.766-2.75-0.5c-1.234,0.267-2.517,0.85-3.85,1.75
                  c-1.334,0.899-2.617,2.1-3.85,3.6c-1.234,1.5-2.15,3.185-2.75,5.05c-0.8,2.468-0.667,4.468,0.399,6c1.066,1.534,2.65,2.534,4.75,3
                  c2.101,0.468,4.55,0.385,7.351-0.25c2.8-0.633,5.6-1.883,8.399-3.75c0.115-0.074,0.206-0.119,0.312-0.183
                  c-0.007-0.288-0.021-0.573-0.012-0.867c0.065-1.966,0.333-3.75,0.8-5.35c0.533-1.934,1.45-3.966,2.75-6.101
                  c1.3-2.133,2.851-4.115,4.65-5.95c1.8-1.832,3.766-3.35,5.9-4.55c2.133-1.2,4.3-1.8,6.5-1.8c0.6,0,1.116,0.317,1.55,0.95
                  c0.433,0.634,0.715,1.35,0.85,2.149c0.133,0.801,0.065,1.551-0.2,2.25c-0.267,0.7-0.834,1.117-1.7,1.25c-1.8,0.4-3.517,1.4-5.15,3
                  c-1.635,1.601-2.967,3.351-4,5.25c-1.034,1.9-1.65,3.7-1.85,5.4s0.233,2.85,1.3,3.45c1.465,0.8,3.05,0.685,4.75-0.351
                  c1.7-1.032,3.232-2.465,4.6-4.3c1.366-1.833,2.416-3.815,3.15-5.95c0.732-2.133,0.899-3.899,0.5-5.3c-0.2-0.665-0.101-1.333,0.3-2
                  c0.4-0.665,0.95-1.216,1.65-1.649s1.483-0.7,2.35-0.801c0.865-0.1,1.6,0.117,2.2,0.65c0.6,0.534,1.399,1.018,2.399,1.45
                  c1,0.435,2.101,0.784,3.3,1.05c1.034,0.23,2.094,0.343,3.177,0.349c1.4-2.986,3.016-5.921,4.872-8.799
                  c2.3-3.565,4.716-6.683,7.25-9.35c2.532-2.666,5.083-4.666,7.649-6c2.566-1.333,4.916-1.633,7.051-0.9
                  c2,0.734,3.215,1.9,3.649,3.5c0.433,1.601,0.283,3.484-0.45,5.65c-0.734,2.167-1.934,4.534-3.6,7.1
                  c-1.667,2.567-3.635,5.185-5.9,7.851c-2.267,2.667-4.699,5.3-7.3,7.899c-2.6,2.601-5.2,5-7.8,7.2c0,2.067,0.433,3.584,1.3,4.55
                  c0.866,0.968,1.983,1.55,3.351,1.75c1.365,0.2,2.883,0.067,4.55-0.399c1.665-0.466,3.3-1.133,4.899-2
                  c0.375-0.214,0.688-0.357,0.947-0.44c0.001-0.237-0.01-0.47,0.002-0.71c0.1-1.966,0.383-3.75,0.85-5.35
                  c0.533-1.934,1.45-3.966,2.75-6.101c1.301-2.133,2.851-4.115,4.65-5.95c1.8-1.832,3.766-3.35,5.9-4.55
                  c2.133-1.2,4.299-1.8,6.5-1.8c0.6,0,1.115,0.317,1.549,0.95c0.434,0.634,0.717,1.35,0.851,2.149c0.133,0.801,0.065,1.551-0.2,2.25
                  c-0.268,0.7-0.834,1.117-1.699,1.25c-1.801,0.4-3.518,1.4-5.15,3c-1.635,1.601-2.967,3.351-4,5.25c-1.034,1.9-1.65,3.7-1.85,5.4
                  c-0.2,1.7,0.232,2.85,1.3,3.45c1.466,0.8,3.05,0.685,4.749-0.351c1.701-1.032,3.233-2.465,4.601-4.3
                  c1.366-1.833,2.415-3.815,3.149-5.95c0.733-2.133,0.9-3.899,0.5-5.3c-0.199-0.665-0.1-1.333,0.301-2
                  c0.4-0.665,0.949-1.216,1.65-1.649c0.699-0.434,1.465-0.7,2.299-0.801c0.834-0.1,1.551,0.117,2.15,0.65
                  c0.466,0.4,1.033,0.768,1.7,1.1c0.665,0.335,1.366,0.484,2.101,0.45c0.732-0.032,1.516-0.315,2.35-0.85
                  c0.832-0.533,1.65-1.4,2.449-2.601c-0.533-1.399-0.717-2.915-0.549-4.55c0.165-1.633,0.549-3.165,1.149-4.6
                  c0.601-1.433,1.366-2.633,2.3-3.601c0.934-0.965,1.966-1.449,3.1-1.449c1.133,0,2.033,0.334,2.701,1
                  c0.665,0.667,1.064,1.566,1.199,2.699c0.133,1.135,0.051,2.45-0.25,3.95c-0.3,1.5-0.85,3.05-1.65,4.65
                  c1.201,0.267,2.451,0.334,3.75,0.2c1.301-0.133,2.516-0.266,3.65-0.4c0.865-0.065,1.666,0.018,2.4,0.25
                  c0.732,0.234,1.283,0.635,1.65,1.2C200.025,166.16,200.176,166.859,200.109,167.692z"/>
            </g>
      </g>
</svg>
